<?xml version="1.0" encoding="UTF-8"?><svg id="Capa_1" xmlns="http://www.w3.org/2000/svg" viewBox="0 0 2000.8571 2000.8571"><rect width="2000.8571" height="2000.8571" style="fill:#b0f8f2;"/><polygon points="2000.8571 0 2000.8571 228.1117 0 381.7872 0 0 2000.8571 0" style="fill:#a7f3eb;"/><path d="M0,1535.4146l2000.8571,13.9044v-769.2207c-63.2131-69.148-202.4424-314.4123-251.7563-314.4123-37.911,0-188.8253,231.6853-250.2124,237.0804-171.2766,15.0524-450.3045-486.6681-529.5608-490.2704-92.1775-4.1894-253.9308,253.1901-279.2048,253.1901-60.8285,0-176.7857-139.5498-227.4654-135.1267C396.9452,336.2941,113.7527,694.4079,0,814.6574v720.7572Z" style="fill:#60f8f3;"/><path d="M151.5065,1536.4674l1849.3506,12.8515v-252.5698c-148.5356-15.3806-305.9831-23.6509-469.0322-23.6509-581.5987,0-1092.0066,105.1554-1380.3185,263.3692Z" style="fill:#48e1d7;"/><path d="M0,1221.0067v779.8505h1752.4435c119.8626-68.1052,186.2118-143.0489,186.2118-221.7442,0-279.6342-837.4663-511.9333-1938.6552-558.1063Z" style="fill:#31b999;"/><path d="M336.2876,1477.0059c8.2671,73.6996-247.059,136.5293-336.2876,218.3231v305.5281h1257.8288v-567.2282s-931.6507-46.752-921.5412,43.377Z" style="fill:#2eae8b;"/><path d="M0,2000.8571h2000.8571v-653.5804c-869.8355,0-1624.6224,216.1202-2000.8571,532.6714v120.909Z" style="fill:#289f80;"/><path d="M351.4521,561.232c-7.582-12.637,111.2048-230.6732,111.2048-230.6732C396.9452,336.2941,113.7527,694.4079,0,814.6574v249.5261s290.7946-300.76,311.014-333.6161c20.2187-32.8561,48.0206-156.6983,40.4381-169.3353Z" style="fill:#93fff8;"/><path d="M388.5204,1083.5602c-35.3832,141.5338,279.6982-342.2514,279.6982-342.2514,0,0,90.1434-261.2187,168.493-349.4121,78.3492-88.1934,65.5673-106.0622,132.6156-179.4009-92.1771-4.1894-253.9304,253.1901-279.2044,253.1901l-338.6311,405.6714c-7.2971,8.7417-.2993,21.6565,11.0515,20.7493,12.8031-1.0236,27.6422.9292,42.8267,9.4813,32.3951,18.2454-2.9176,126.2461-16.8496,181.9724Z" style="fill:#93fff8;"/><path d="M1337.5101,1168.2913c55.8027,21.2347,262.474-450.3609,323.132-516.0731,60.6572-65.7122,63.1847-165.8186,88.4587-186.5323-34.8861,0-165.4541,196.1708-233.9038,231.6853-.0128.012-239.2137,235.9899-223.555,253.0796,104.2102,113.7327-.0208,200.3786,45.868,217.8405Z" style="fill:#93fff8;"/><path d="M619.3561,508.9992l21.0262,16.2742,49.7405-59.5875c-46.1782,0-124.104-80.3764-181.146-117.1818l110.3793,160.4952Z" style="fill:#59eee6;"/><path d="M1165.9195,491.7375c31.0185,34.6681,52.9142,108.9483,65.6869,128.3718,12.7723,19.4239,124.0755,103.3575,124.0755,103.3575l51.3292,84.0724,108.186-110.168h0c-5.9362,3.0797-11.4097,4.9645-16.3086,5.3951-153.3457,13.4766-393.0368-387.2219-498.4275-473.865,1.3746,2.3322,134.5997,228.347,165.4585,262.8362Z" style="fill:#59eee6;"/><path d="M0,541.8569l1866.676-143.3702c-11.3737,18.9557-883.3756,124.4145-1012.2724,177.49C725.5064,629.0519,0,841.7322,0,841.7322v-299.8753Z" style="fill:#fff; opacity:.5;"/><path d="M268.4154,975.1958c3.6464-4.2918,8.8126-7.2491,14.4394-7.4944,6.6933-.2917,13.9216,3.1369,12.9948,19.8177-1.6851,30.329,29.7079,50.3684,8.8458,80.8166-7.0562,10.2988-14.8276,18.4331-34.2791,36.1255-45.6007,41.4758-105.007,64.5256-166.6486,64.5256h0l164.6477-193.791Z" style="fill:#93fff8;"/><path d="M1811.396,518.2204h0l112.0948,289.3187,63.1851,117.6376,14.1813,101.0957v-246.1743c-44.702-48.8989-127.4106-185.8504-189.4612-261.8778Z" style="fill:#59eee6;"/><path d="M2000.8571,1074.4751l-1209.6386-121.3208s-372.8385-22.9979,389.2187,115.1813c229.8325,41.6743,368.9993,56.505,298.2322,117.1626-63.4976,54.4265,522.1877,48.6997,522.1877,48.6997v-159.7228Z" style="fill:#fff; opacity:.5;"/><path d="M685.9502,1941.695c-61.6436-100.1929-138.1364-215.305-225.2169-327.6524-3.8405,1.5767-7.6617,3.161-11.4769,4.7488,87.5595,112.7207,164.474,228.4415,226.3846,329.0626,11.0023,17.8813,21.7017,35.564,32.1074,53.0031h13.9796c-11.5505-19.4271-23.4817-39.1752-35.7777-59.1621Z" style="fill:#1d725c;"/><path d="M815.3413,1941.695c-68.6866-111.6406-155.8052-241.7964-255.4774-366.0164-3.9705,1.449-7.933,2.902-11.8799,4.3627,100.3074,124.653,188.0145,255.6131,257.0485,367.8128,11.0023,17.8813,21.7017,35.564,32.1074,53.0031h13.9796c-11.5509-19.4271-23.4817-39.1752-35.7781-59.1621Z" style="fill:#1d725c;"/><path d="M556.5588,1941.695c-53.9127-87.6267-119.1634-186.6704-192.9342-285.2918-3.714,1.7203-7.4436,3.4335-11.13,5.1654,74.0989,98.9072,139.6578,198.3618,193.755,286.2854,11.0023,17.8813,21.7017,35.564,32.1074,53.0031h13.98c-11.5509-19.4271-23.4821-39.1752-35.7781-59.1621Z" style="fill:#1d725c;"/><path d="M1074.1201,1941.695c-81.0351-131.7108-187.6856-289.2059-310.3946-432.2992-4.2294,1.2201-8.49,2.421-12.6986,3.6532,123.6658,143.5607,231.2391,302.2711,312.7844,434.8051,11.0023,17.8813,21.7017,35.564,32.1074,53.0031h13.9796c-11.5509-19.4271-23.4817-39.1752-35.7781-59.1621Z" style="fill:#1d725c;"/><path d="M944.7327,1941.695c-75.1354-122.1219-172.3118-266.4005-283.8724-400.8241-4.093,1.329-8.1467,2.6803-12.2188,4.0213,112.3389,134.875,210.2245,280.1632,285.7824,402.9618,11.0019,17.8813,21.7017,35.564,32.1074,53.0031h13.9796c-11.5509-19.4271-23.4817-39.1752-35.7781-59.1621Z" style="fill:#1d725c;"/><path d="M38.9971,1941.695c-12.3457-20.0662-25.3272-40.7655-38.827-61.8869-.0556.0472-.1144.0932-.1701.1401v21.939c9.883,15.6139,19.4611,30.9645,28.6919,45.9669,11.0023,17.8813,21.7017,35.564,32.1078,53.0031h13.9756c-11.5509-19.4271-23.4817-39.1752-35.7781-59.1621Z" style="fill:#1d725c;"/><path d="M168.3885,1941.695c-24.9755-40.5942-52.4345-83.669-81.9951-127.9868-3.2778,2.3046-6.578,4.602-9.8138,6.919,29.375,44.0497,56.6679,86.8684,81.4997,127.2269,11.0023,17.8813,21.7017,35.564,32.1078,53.0031h13.9796c-11.5509-19.4271-23.4817-39.1752-35.7781-59.1621Z" style="fill:#1d725c;"/><path d="M297.78,1941.695c-35.8293-58.2353-76.6656-121.5141-121.6821-186.3594-3.4459,2.0785-6.8573,4.169-10.2672,6.2595,45.0009,64.803,85.83,128.0581,121.6401,186.259,11.0023,17.8813,21.7017,35.564,32.1078,53.0031h13.9796c-11.5509-19.4271-23.4821-39.1752-35.7781-59.1621Z" style="fill:#1d725c;"/><path d="M427.1714,1941.695c-45.3714-73.7448-98.7895-155.5778-158.5407-238.4381-3.5875,1.8868-7.1471,3.7836-10.703,5.682,59.9077,83.0016,113.4746,165.0319,158.9345,238.9151,11.0023,17.8813,21.7017,35.564,32.1074,53.0031h13.9796c-11.5505-19.4271-23.4817-39.1752-35.7777-59.1621Z" style="fill:#1d725c;"/><path d="M1332.903,1941.695c-91.374-148.5148-215.3355-329.7825-358.1487-486.2471-4.4959,1.0096-8.9686,2.0369-13.4482,3.0601,144.0693,156.8472,269.2537,339.7648,361.2876,489.346,11.0023,17.8813,21.7017,35.564,32.1078,53.0031h13.9796c-11.5509-19.4271-23.4817-39.1752-35.7781-59.1621Z" style="fill:#1d725c;"/><path d="M1979.8561,1941.695c-108.9699-177.1135-264.2649-400.8141-442.6489-573.4477-5.263.4826-10.5337.9568-15.784,1.4558,180.5461,172.6199,338.0364,399.2334,448.1236,578.1509,10.7214,17.4251,21.1555,34.6608,31.3103,51.6677v-23.3432c-6.877-11.4045-13.8772-22.9034-21.001-34.4836Z" style="fill:#1d725c;"/><path d="M2000.8571,1463.3445v-17.746c-31.3407-33.9145-63.5677-66.5617-96.5374-97.3945-5.7625.1064-11.5249.2097-17.2751.3353,39.0303,35.939,77.0407,74.5279,113.8124,114.8052Z" style="fill:#1d725c;"/><path d="M1203.5116,1941.695c-86.4423-140.499-202.0486-310.3165-335.1876-460.7146-4.3603,1.1133-8.7214,2.2262-13.0632,3.3522,134.2431,150.833,250.9159,322.0796,337.942,463.5214,11.0019,17.8813,21.7013,35.564,32.1074,53.0031h13.9796c-11.5509-19.4271-23.4817-39.1752-35.7781-59.1621Z" style="fill:#1d725c;"/><path d="M2000.8571,1795.9754v-21.3263c-97.0488-141.6975-214.6648-292.5677-344.1279-415.8862-5.4219.3642-10.8607.7059-16.2698,1.0873,136.3612,128.1693,259.9101,287.9165,360.3976,436.1252Z" style="fill:#1d725c;"/><path d="M2000.8571,1617.3853v-19.4171c-68.3253-86.9076-142.8865-171.6331-221.7891-245.927-5.62.2409-11.2528.4626-16.8604.7215,85.2625,79.1207,165.6558,170.7696,238.6495,264.6226Z" style="fill:#1d725c;"/><path d="M1850.4647,1941.695c-106.4256-172.9789-257.039-390.4016-430.1903-561.284-5.085.5927-10.1663,1.1889-15.2369,1.7968,175.1062,170.9484,327.6812,391.0319,435.118,565.6463,11.0023,17.8813,21.7017,35.564,32.1074,53.0031h13.9796c-11.5505-19.4271-23.4817-39.1752-35.7777-59.1621Z" style="fill:#1d725c;"/><path d="M1591.6819,1941.695c-99.844-162.2819-238.5846-363.6778-398.3327-529.0718-4.792.8067-9.5509,1.6415-14.3265,2.4623,161.3419,165.635,301.676,369.1445,402.35,532.7686,11.0023,17.8813,21.7017,35.564,32.1078,53.0031h13.9796c-11.5509-19.4271-23.4817-39.1752-35.7781-59.1621Z" style="fill:#1d725c;"/><path d="M1462.2944,1941.695c-95.8419-155.7771-227.5327-347.5889-379.2329-509.0113-4.6396.9084-9.2392,1.8488-13.8623,2.7704,153.116,161.7381,286.2006,355.4255,382.786,512.3999,11.0023,17.8813,21.7017,35.564,32.1078,53.0031h13.9796c-11.5509-19.4271-23.4821-39.1752-35.7781-59.1621Z" style="fill:#1d725c;"/><path d="M1721.0733,1941.695c-103.3715-168.0144-248.4153-377.9895-415.3224-546.4925-4.9585.7043-9.901,1.4238-14.8444,2.1425,168.6967,168.6651,315.558,380.9932,419.8575,550.509,11.0023,17.8813,21.7017,35.564,32.1074,53.0031h13.98c-11.5509-19.4271-23.4821-39.1752-35.7781-59.1621Z" style="fill:#1d725c;"/><path d="M831.3033,2000.8571h1169.5538v-542.2715c-137.5294-10.3688-786.4049-45.0389-1249.8302,178.392-520.8891,251.136,535.0048,22.9514,661.9304,133.8862,117.3534,102.5687-471.6829,111.3865-581.654,229.9933Z" style="fill:#1d725c; opacity:.45;"/><path d="M592.3369,1137.7098s-49.7269,147.7349,1.9076,147.7345c34.6705,0,25.4917-82.2512-1.9076-147.7345Z" style="fill:#1d725c;"/><path d="M87.6976,1501.7653s-86.02,255.5595,3.3006,255.5587c59.9741-.0004,44.0965-142.2826-3.3006-255.5587Z" style="fill:#1d725c;"/><path d="M647.3533,1185.5671s-40.9472,121.6513,1.5715,121.6509c28.5486,0,20.9906-67.729-1.5715-121.6509Z" style="fill:#1d725c;"/><path d="M178.248,1539.706s-40.9471,121.6509,1.5715,121.6509c28.5486-.0004,20.9906-67.7294-1.5715-121.6509Z" style="fill:#1d725c;"/><path d="M1108.7177,1267.1136s-40.9471,121.6513,1.5711,121.6509c28.549,0,20.991-67.7294-1.5711-121.6509Z" style="fill:#1d725c;"/><path d="M1203.8401,1318.9118s-23.5121,69.8531.902,69.8527c16.3931,0,12.0532-38.8907-.902-69.8527Z" style="fill:#1d725c;"/><path d="M134.5761,1186.9517s-23.5121,69.8531.9024,69.8527c16.393,0,12.0528-38.8907-.9024-69.8527Z" style="fill:#1d725c;"/><path d="M1252.7622,1236.701s-20.4736,60.8257.7855,60.8257c14.2745-.0004,10.4957-33.8649-.7855-60.8257Z" style="fill:#48e1d7;"/><path d="M1154.9419,1242.6856s-20.4736,60.8253.7855,60.8253c14.2745,0,10.4957-33.8645-.7855-60.8253Z" style="fill:#48e1d7;"/><path d="M986.7103,1269.339s-15.6575,46.5183.6011,46.5179c10.9167,0,8.0266-25.8987-.6011-46.5179Z" style="fill:#48e1d7;"/><path d="M1266.6998,1236.701s-20.4736,60.8257.7855,60.8257c14.2745-.0004,10.4953-33.8649-.7855-60.8257Z" style="fill:#48e1d7;"/><path d="M1283.0456,1234.3712s-20.4736,60.8253.7855,60.8253c14.2745,0,10.4953-33.8645-.7855-60.8253Z" style="fill:#48e1d7;"/><path d="M1313.0981,1242.6856s-20.4736,60.8253.7855,60.8253c14.2745,0,10.4957-33.8645-.7855-60.8253Z" style="fill:#48e1d7;"/><path d="M1326.8352,1227.7191s-20.4736,60.8257.7856,60.8253c14.2745,0,10.4957-33.8645-.7856-60.8253Z" style="fill:#48e1d7;"/><path d="M1349.8498,1234.3712s-20.4736,60.8253.7855,60.8253c14.2745,0,10.4953-33.8645-.7855-60.8253Z" style="fill:#48e1d7;"/><path d="M1417.5128,1202.7332s-28.884,85.8116,1.1081,85.8112c20.1382,0,14.8067-47.7753-1.1081-85.8112Z" style="fill:#48e1d7;"/><path d="M1448.9119,1221.8782s-28.884,85.8112,1.1081,85.8112c20.1382-.0004,14.8067-47.7757-1.1081-85.8112Z" style="fill:#48e1d7;"/><path d="M1482.1205,1215.2262s-24.9191,74.0329.9564,74.0329c17.3739-.0004,12.7743-41.2181-.9564-74.0329Z" style="fill:#48e1d7;"/><path d="M1628.2255,1236.0819s-24.9191,74.0329.956,74.0325c17.3738,0,12.7743-41.2177-.956-74.0325Z" style="fill:#48e1d7;"/><path d="M1690.0423,1215.2262s-24.9191,74.0329.956,74.0329c17.3742-.0004,12.7743-41.2181-.956-74.0329Z" style="fill:#48e1d7;"/><path d="M1719.9556,1242.6856s-15.2873,45.4167.5863,45.4167c10.6586-.0004,7.837-25.286-.5863-45.4167Z" style="fill:#48e1d7;"/><path d="M1788.5142,1240.5774s-17.8641,53.0727.6854,53.0727c12.4553,0,9.1579-29.5483-.6854-53.0727Z" style="fill:#48e1d7;"/><path d="M1967.2879,1246.5616s-17.8641,53.0731.6855,53.0731c12.4553-.0004,9.1579-29.5487-.6855-53.0731Z" style="fill:#48e1d7;"/><path d="M75.3991,1173.5455s-40.9471,121.6513,1.5711,121.6509c28.549-.0004,20.991-67.7294-1.5711-121.6509Z" style="fill:#1d725c;"/><polygon points="226.1032 1221.7894 440.9909 1221.7894 399.5632 1195.5165 275.7425 1195.5165 226.1032 1221.7894" style="fill:#d0d2d3;"/><polygon points="226.1032 1221.7894 440.9909 1221.7894 450.2757 1265.9703 274.8381 1265.9703 226.1032 1221.7894" style="fill:#d0d2d3;"/><polygon points="285.838 1195.5165 285.8701 1195.5165 389.9138 1195.5165 368.6391 1299.3022 374.7533 1360.9614 240.002 1360.9614 233.4588 1298.9585 243.1397 1221.7894 285.838 1195.5165" style="fill:#c8475d;"/><polygon points="389.8822 1195.5165 389.9138 1195.5165 422.9324 1221.7894 432.6133 1299.3022 422.9324 1360.9614 344.0462 1360.9614 337.503 1298.9585 347.1839 1221.7894 389.8822 1195.5165" style="fill:#df5d6c;"/><polygon points="226.1032 1221.7894 356.8649 1221.7894 399.5632 1195.5165 275.7425 1195.5165 226.1032 1221.7894" style="fill:#f0f1f1;"/><polygon points="226.1032 1221.7894 356.8649 1221.7894 347.1839 1265.9703 223.3633 1265.9703 226.1032 1221.7894" style="fill:#f0f1f1;"/><polygon points="363.7166 1359.5604 416.9306 1359.5604 412.9289 1244.0065 371.7204 1244.0065 363.7166 1359.5604" style="fill:#9b2643;"/><polygon points="392.8383 1359.5604 416.9306 1359.5604 412.9289 1244.0065 394.4177 1249.6309 392.8383 1359.5604" style="fill:#ad334d;"/><rect x="341.0973" y="1355.2938" width="87.5479" height="11.673" transform="translate(769.7425 2722.2606) rotate(180)" style="fill:#c8475d;"/><rect x="233.4588" y="1355.2938" width="107.6385" height="11.673" style="fill:#be3a57;"/><polygon points="428.6452 1366.9668 248.1911 1400.067 154.9596 1402.7289 124.3885 1388.4076 233.4588 1366.9668 428.6452 1366.9668" style="fill:#2eae8b;"/><polygon points="322.5073 1309.7871 246.7077 1309.7871 250.7094 1293.4477 318.5056 1293.4477 322.5073 1309.7871" style="fill:#9b2643;"/><path d="M530.1063,1204.111s-28.4638,84.5638,1.0925,84.5634c19.8453,0,14.5915-47.081-1.0925-84.5634Z" style="fill:#1d725c;"/><path d="M172.8392,1278.2388s-28.4638,84.5638,1.0921,84.5638c19.8453-.0004,14.5915-47.081-1.0921-84.5638Z" style="fill:#1d725c;"/><path d="M483.3691,1269.7467s-22.7297,67.5285.8724,67.5281c15.8476,0,11.6518-37.5965-.8724-67.5281Z" style="fill:#1d725c;"/><path d="M369.1982,1417.8774s-28.4638,84.5638,1.0921,84.5634c19.8453,0,14.5915-47.0806-1.0921-84.5634Z" style="fill:#1d725c;"/><path d="M716.0067,1281.3837c-7.2655,34.5976-45.9481,80.6017-198.2333,85.5831-242.1737,7.9214,148.2923,75.1614,470.8201-43.4922-86.4923-15.4842-177.5441-29.5611-272.5867-42.0908Z" style="fill:#2eae8b;"/><path d="M1511.6427,1412.5595c0,3.7472-3.0381,6.7849-6.7853,6.7849s-6.7849-3.0377-6.7849-6.7849,3.0377-6.7853,6.7849-6.7853,6.7853,3.0377,6.7853,6.7853Z" style="fill:#1d725c; opacity:.45;"/><path d="M1438.4782,1450.3145c0,3.7472-3.0377,6.7849-6.7849,6.7849s-6.7853-3.0377-6.7853-6.7849,3.0381-6.7853,6.7853-6.7853,6.7849,3.0381,6.7849,6.7853Z" style="fill:#1d725c; opacity:.45;"/><path d="M1135.606,1457.0994c0,3.7476-3.0377,6.7853-6.7853,6.7853s-6.7849-3.0377-6.7849-6.7853,3.0377-6.7849,6.7849-6.7849,6.7853,3.0377,6.7853,6.7849Z" style="fill:#1d725c; opacity:.45;"/><path d="M1082.9667,1502.6109c0,3.7472-3.0377,6.7849-6.7849,6.7849s-6.7853-3.0377-6.7853-6.7849,3.0377-6.7853,6.7853-6.7853,6.7849,3.0377,6.7849,6.7853Z" style="fill:#1d725c; opacity:.45;"/><path d="M917.7423,1495.8256c0,3.7472-3.0377,6.7853-6.7853,6.7853s-6.7849-3.0381-6.7849-6.7853,3.0377-6.7849,6.7849-6.7849,6.7853,3.0377,6.7853,6.7849Z" style="fill:#1d725c; opacity:.45;"/><path d="M845.7879,1527.1158c0,3.7472-3.0377,6.7853-6.7849,6.7853s-6.7853-3.0381-6.7853-6.7853,3.0377-6.7849,6.7853-6.7849,6.7849,3.0377,6.7849,6.7849Z" style="fill:#1d725c; opacity:.45;"/><path d="M614.3824,1604.1468c0,3.7472-3.0377,6.7853-6.7849,6.7853s-6.7853-3.0381-6.7853-6.7853,3.0377-6.7853,6.7853-6.7853,6.7849,3.0381,6.7849,6.7853Z" style="fill:#1d725c; opacity:.45;"/><path d="M599.1218,1698.0298c0,3.7472-3.0377,6.7849-6.7849,6.7849s-6.7853-3.0377-6.7853-6.7849,3.0377-6.7853,6.7853-6.7853,6.7849,3.0381,6.7849,6.7853Z" style="fill:#1d725c; opacity:.45;"/><path d="M399.6232,1674.0671c0,3.7472-3.0377,6.7849-6.7849,6.7849s-6.7853-3.0377-6.7853-6.7849,3.0381-6.7853,6.7853-6.7853,6.7849,3.0377,6.7849,6.7853Z" style="fill:#1d725c; opacity:.45;"/><path d="M821.3614,1821.8449c0,3.7476-3.0377,6.7853-6.7853,6.7853s-6.7849-3.0377-6.7849-6.7853,3.0377-6.7849,6.7849-6.7849,6.7853,3.0377,6.7853,6.7849Z" style="fill:#1d725c; opacity:.45;"/><path d="M782.9914,1807.4499c0,3.7472-3.0377,6.7853-6.7853,6.7853s-6.7849-3.0381-6.7849-6.7853,3.0377-6.7849,6.7849-6.7849,6.7853,3.0377,6.7853,6.7849Z" style="fill:#1d725c; opacity:.45;"/><path d="M845.7879,1900.4978c0,3.7472-3.0377,6.7849-6.7849,6.7849s-6.7853-3.0377-6.7853-6.7849,3.0377-6.7853,6.7853-6.7853,6.7849,3.0377,6.7849,6.7853Z" style="fill:#1d725c; opacity:.45;"/><path d="M743.7434,1940.3328c0,3.7472-3.0377,6.7849-6.7849,6.7849s-6.7853-3.0377-6.7853-6.7849,3.0381-6.7853,6.7853-6.7853,6.7849,3.0377,6.7849,6.7853Z" style="fill:#1d725c; opacity:.45;"/><path d="M706.8084,1878.0966c0,3.7472-3.0377,6.7849-6.7853,6.7849s-6.7849-3.0377-6.7849-6.7849,3.0377-6.7853,6.7849-6.7853,6.7853,3.0377,6.7853,6.7853Z" style="fill:#1d725c; opacity:.45;"/><path d="M554.7688,1879.8081c0,3.7476-3.0377,6.7853-6.7849,6.7853s-6.7853-3.0377-6.7853-6.7853,3.0377-6.7849,6.7853-6.7849,6.7849,3.0377,6.7849,6.7849Z" style="fill:#1d725c; opacity:.45;"/><path d="M439.3982,1871.3112c0,3.7472-3.0377,6.7853-6.7849,6.7853s-6.7853-3.0381-6.7853-6.7853,3.0381-6.7849,6.7853-6.7849,6.7849,3.0377,6.7849,6.7849Z" style="fill:#1d725c; opacity:.45;"/><path d="M435.4301,1821.8449c0,3.7476-3.0377,6.7853-6.7849,6.7853s-6.7853-3.0377-6.7853-6.7853,3.0381-6.7849,6.7853-6.7849,6.7849,3.0377,6.7849,6.7849Z" style="fill:#1d725c; opacity:.45;"/><path d="M340.343,1740.9186c0,3.7476-3.0377,6.7853-6.7849,6.7853s-6.7853-3.0377-6.7853-6.7853,3.0377-6.7849,6.7853-6.7849,6.7849,3.0377,6.7849,6.7849Z" style="fill:#1d725c; opacity:.45;"/><path d="M247.029,1770.8638c0,3.7476-3.0377,6.7853-6.7849,6.7853s-6.7853-3.0377-6.7853-6.7853,3.0377-6.7849,6.7853-6.7849,6.7849,3.0377,6.7849,6.7849Z" style="fill:#1d725c; opacity:.45;"/><path d="M193.5985,1852.057c0,3.7472-3.0377,6.7853-6.7849,6.7853s-6.7853-3.0381-6.7853-6.7853,3.0381-6.7849,6.7853-6.7849,6.7849,3.0377,6.7849,6.7849Z" style="fill:#1d725c; opacity:.45;"/><path d="M64.442,1900.4978c0,3.7472-3.0377,6.7849-6.7849,6.7849s-6.7853-3.0377-6.7853-6.7849,3.0381-6.7853,6.7853-6.7853,6.7849,3.0377,6.7849,6.7853Z" style="fill:#1d725c; opacity:.45;"/><path d="M1082.9667,1864.5263c0,3.7472-3.0377,6.7849-6.7849,6.7849s-6.7853-3.0377-6.7853-6.7849,3.0377-6.7853,6.7853-6.7853,6.7849,3.0377,6.7849,6.7853Z" style="fill:#1d725c; opacity:.45;"/><path d="M1311.0124,1815.0599c0,3.7472-3.0377,6.7849-6.7853,6.7849s-6.7849-3.0377-6.7849-6.7849,3.0377-6.7853,6.7849-6.7853,6.7853,3.0381,6.7853,6.7853Z" style="fill:#1d725c; opacity:.45;"/><path d="M1635.7291,1426.1297c0,3.7472-3.0381,6.7849-6.7853,6.7849s-6.7849-3.0377-6.7849-6.7849,3.0377-6.7853,6.7849-6.7853,6.7853,3.0377,6.7853,6.7853Z" style="fill:#1d725c; opacity:.45;"/><path d="M1659.2103,1411.2085c0,3.7472-3.0381,6.7849-6.7853,6.7849s-6.7849-3.0377-6.7849-6.7849,3.0377-6.7853,6.7849-6.7853,6.7853,3.0377,6.7853,6.7853Z" style="fill:#1d725c; opacity:.45;"/><path d="M1795.8145,1417.8774c0,3.7472-3.0377,6.7853-6.7853,6.7853s-6.7849-3.0381-6.7849-6.7853,3.0377-6.7853,6.7849-6.7853,6.7853,3.0381,6.7853,6.7853Z" style="fill:#1d725c; opacity:.45;"/><path d="M1893.0277,1419.3444c0,3.7472-3.0377,6.7853-6.7853,6.7853s-6.7849-3.0381-6.7849-6.7853,3.0377-6.7849,6.7849-6.7849,6.7853,3.0377,6.7853,6.7849Z" style="fill:#1d725c; opacity:.45;"/><path d="M1966.3327,1365.5482c0,3.7472-3.0377,6.7849-6.7849,6.7849s-6.7853-3.0377-6.7853-6.7849,3.0377-6.7853,6.7853-6.7853,6.7849,3.0381,6.7849,6.7853Z" style="fill:#1d725c; opacity:.45;"/><path d="M1919.6967,1405.7742c0,3.7472-3.0377,6.7853-6.7849,6.7853s-6.7853-3.0381-6.7853-6.7853,3.0377-6.7853,6.7853-6.7853,6.7849,3.0381,6.7849,6.7853Z" style="fill:#1d725c; opacity:.45;"/><path d="M1446.9282,2000.8571h553.9289v-446.4909c-171.5912-19.5244-783.2896-81.1304-703.415,42.9952,92.7685,144.1634,498.9741,53.4249,381.8032,247.9106-54.9215,91.1599-160.1102,127.93-232.3171,155.5851Z" style="fill:#1d725c; opacity:.45;"/><path d="M204.6317,98.9232s781.3751-24.701,719.7447,37.0031c-61.6308,61.7036,303.9859,13.1728,301.8273,83.7955-2.1585,70.6227-1285.0353,235.3264-903.6611,70.9224C485.6472,220.3324-40.8627,105.5376,204.6317,98.9232Z" style="fill:#fff; opacity:.5;"/><path d="M1743.4804,659.9803s-805.6403-41.3109-699.8874,54.4325c105.7529,95.7434-329.4471,53.1412-160.7192,129.0353,168.7279,75.8941,728.1331,89.8581,718.6675-49.5504-3.8332-56.4522,474.0907-136.5509,141.9392-133.9174Z" style="fill:#fff; opacity:.5;"/></svg>