<?xml version="1.0" encoding="UTF-8"?><svg id="Capa_1" xmlns="http://www.w3.org/2000/svg" viewBox="0 0 1938.3592 1877.2076"><path d="M1684.1519,1572.3274c-436.2783,465.173-1218.7179,385.7319-1547.2821-154.3084C-212.76,843.3546,141.4638,122.5186,813.6379,13.811c904.8559-146.3381,1484.4777,903.8899,870.514,1558.5164ZM899.2008,1736.7681c391.5903,39.4849,759.589-215.199,865.4653-578.839C1925.7196,604.7791,1457.1508,83.0373,875.7922,138.864c-113.8654,10.9343-225.1423,49.0976-321.8875,107.2027-3.8949,4.9929,13.8031,58.3703,16.2327,69.9807,28.3927,135.6792,23.7555,239.0297-51.7092,358.9009-63.4362,100.7647-143.0281,160.7107-259.2706,194.9769-19.4235,5.7257-103.4664,21.9603-112.5157,30.5918-5.5513,5.295-4.1661,65.9224-3.5648,78.6225,11.5944,244.8884,134.8826,450.8072,328.7483,601.3355,55.2438,42.8944,123.3344,88.8584,194.4646,98.5163,5.1895-28.6195,5.8198-56.0462,12.7205-84.7992,24.3401-101.4175,96.7454-192.6541,182.1363-253.0117,5.7056-80.4014,9.1032-205.1245-85.4867-237.761,14.9567,79.3445,43.307,169.1539-16.1886,238.2703-129.3966-63.5352-143.7791-248.4847-131.3767-372.8978,1.3546-13.5887,10.8785-83.3215,15.8071-90.3981,3.1014-4.4531,4.8478-2.587,8.8444-2.0209,60.9049,8.626,147.3514,49.1225,193.2131,88.9446,88.5625,76.8996,111.6757,193.9898,100.0448,305.0216,98.5213-61.6209,188.266-170.8546,224.7641-279.5413,42.1263-125.4469,9.2143-278.9253-71.9954-383.2054l-31.5421-27.343c22.8826,77.6935,40.4502,157.0031,35.1257,238.5249-.6064,9.2838-2.4445,43.7871-11.8726,42.3522-11.0445-1.6809-68.8524-57.7491-79.5365-69.4945-130.6785-143.6592-205.9498-333.2345-63.0425-497.6049l66.6713-61.5066c26.363,36.6409,38.8927,87.8104,66.7343,122.7539,36.767,46.1455,104.5653,89.3156,147.6568,136.2436,127.9019,139.2894,154.8318,301.6317,109.2823,481.109-23.6123,93.039-69.8971,165.6643-112.8704,250.0501,95.7311-16.239,176.9757-71.5584,266.9643-102.2445,15.0294,96.61,15.2894,221.1032-68.5758,289.6203-62.0824,50.7206-207.3341,63.5236-282.7582,39.3238-18.0278-5.7842-37.0015-8.7939-19.1801-25.4822,46.7411-43.7692,122.2966-56.7826,179.7047-81.2934,9.6259-4.1098,28.6776-10.8932,30.9739-21.0815-150.7394-4.9308-315.6738,59.9835-400.9812,183.6178-46.5311,67.4367-70.256,155.2081-32.3257,231.6304ZM434.817,333.1216c-8.612-8.5068-71.5663,53.1118-79.0822,61.3007-88.8704,96.8279-158.3849,236.3336-191.42,361.3082,204.6084-24.3943,323.6921-234.8695,270.5022-422.6089Z" style="fill:#157d4b;"/></svg>