<?xml version="1.0" encoding="UTF-8"?>
<svg id="Capa_1" data-name="Capa 1" xmlns="http://www.w3.org/2000/svg" width="1770.617" height="684.001" viewBox="0 0 1770.617 684.001">
  <g>
    <path d="M1682.355,320.614h-13.666v-10.3h39.383v10.3h-13.666v39.519h-12.051v-39.519Z" style="fill: #116e78;"/>
    <path d="M1717.094,310.314h8.954l13.801,23.562,14.003-23.562h9.088l3.366,49.818h-11.781l-1.01-28.814-13.464,21.476-13.532-21.341-1.01,28.68h-11.781l3.366-49.818Z" style="fill: #116e78;"/>
  </g>
  <g>
    <path d="M181.043,192.643v-52.004h140.329v14.859c0,104.421-53.655,166.331-147.346,166.331-99.882,0-157.664-63.148-157.664-157.664S71.256,6.5,176.09,6.5c38.384,0,81.309,12.382,107.724,36.32l-29.304,51.179c-23.113-16.922-43.337-24.351-74.292-24.351-59.021,0-88.325,39.209-88.325,94.516s27.24,94.516,82.134,94.516c40.035,0,67.688-21.462,73.054-66.037h-66.037Z" style="fill: #116e78; stroke: #116e78; stroke-miterlimit: 10; stroke-width: 13px;"/>
    <path d="M562.823,220.296c14.033,25.177,67.318,26.825,96.58,26.825v69.755c-54.893,0-126.297-12.382-153.125-60.259l-16.922-30.13h-54.068v90.389h-72.228V11.453h130.836c71.816,0,120.106,37.559,120.106,108.136,0,40.448-24.351,71.816-58.608,87.5l7.429,13.207ZM435.288,73.363v92.865h54.894c26.828,0,48.29-14.859,48.29-46.639,0-32.193-21.462-46.226-47.464-46.226h-55.719Z" style="fill: #116e78; stroke: #116e78; stroke-miterlimit: 10; stroke-width: 13px;"/>
    <path d="M659.403,138.987c0-84.61,49.528-132.487,134.551-132.487,83.785,0,133.726,47.877,133.726,132.487v177.888h-72.228v-80.483h-123.82v80.483h-72.228v-177.888ZM855.451,173.244v-34.257c0-43.75-21.462-69.339-61.497-69.339-41.273,0-62.323,25.589-62.323,69.339v34.257h123.82Z" style="fill: #116e78; stroke: #116e78; stroke-miterlimit: 10; stroke-width: 13px;"/>
    <path d="M982.162,11.453h72.229v305.423h-72.229V11.453Z" style="fill: #116e78; stroke: #116e78; stroke-miterlimit: 10; stroke-width: 13px;"/>
    <path d="M1115.474,11.453h49.941l143.631,98.643V11.453h72.229v305.423h-72.229v-124.646l-121.344-82.547v207.192h-72.228V11.453Z" style="fill: #116e78; stroke: #116e78; stroke-miterlimit: 10; stroke-width: 13px;"/>
  </g>
  <path d="M1580.72,263.943c0-8.461-.705-15.747-3.995-22.328-18.333,19.038-40.426,25.149-63.459,25.149-41.366,0-63.459-25.854-63.459-53.352,0-19.038,8.226-34.315,26.559-46.537-5.405-8.226-8.461-17.392-8.461-28.674,0-31.025,23.503-51.003,56.408-51.003,21.153,0,35.255,6.111,45.126,12.692l-15.982,28.909c-6.816-3.525-13.162-6.346-22.563-6.346-15.277,0-20.213,8.696-20.213,15.747,0,6.581,1.41,17.862,47.242,41.131,5.17,2.585,9.871,5.171,14.337,7.756,2.115-5.876,4.231-12.222,5.876-19.743h-16.217v-20.448h54.058l-2.82,15.512c-3.29,18.098-8.932,32.905-14.572,45.362,12.222,13.632,18.803,31.025,18.803,56.173h-36.665ZM1518.201,230.804c10.342,0,22.798-1.88,34.315-12.222-3.996-2.585-8.696-5.17-13.867-7.756-13.867-7.286-26.324-13.867-36.665-20.448-7.991,6.346-9.401,13.632-9.401,18.568,0,11.517,8.932,21.858,25.619,21.858Z" style="fill: #279ba8;"/>
  <g>
    <path d="M171.181,548.315v-52.004h140.33v14.859c0,104.422-53.655,166.331-147.346,166.331-99.881,0-157.664-63.148-157.664-157.664s54.893-157.664,159.728-157.664c38.384,0,81.308,12.382,107.723,36.32l-29.304,51.179c-23.113-16.923-43.337-24.351-74.292-24.351-59.021,0-88.325,39.209-88.325,94.516s27.24,94.516,82.134,94.516c40.035,0,67.688-21.462,73.054-66.037h-66.037Z" style="fill: #116e78; stroke: #116e78; stroke-miterlimit: 10; stroke-width: 13px;"/>
    <path d="M552.96,575.969c13.16,20.623,55.595,26.641,85.148,28.095l11.432,68.485c-54.894,0-126.297-12.383-153.125-60.259l-16.922-30.13h-54.068v90.389h-72.229v-305.423h130.837c71.816,0,120.105,37.559,120.105,108.136,0,40.449-24.351,71.816-58.608,87.5,0,0,5.391,10.014,7.429,13.207ZM425.425,429.035v92.865h54.893c26.827,0,48.29-14.859,48.29-46.639,0-32.193-21.462-46.226-47.464-46.226h-55.719Z" style="fill: #116e78; stroke: #116e78; stroke-miterlimit: 10; stroke-width: 13px;"/>
    <path d="M649.54,494.66c0-84.61,49.528-132.487,134.551-132.487,83.785,0,133.726,47.877,133.726,132.487v177.888h-72.229v-80.483h-123.82v80.483h-72.229v-177.888ZM845.588,528.917v-34.257c0-43.75-21.462-69.339-61.497-69.339-41.274,0-62.323,25.589-62.323,69.339v34.257h123.82Z" style="fill: #116e78; stroke: #116e78; stroke-miterlimit: 10; stroke-width: 13px;"/>
    <path d="M972.299,367.125h72.228v305.423h-72.228v-305.423Z" style="fill: #116e78; stroke: #116e78; stroke-miterlimit: 10; stroke-width: 8px;"/>
    <path d="M1105.611,367.125h49.941l143.631,98.644v-98.644h72.228v305.423h-72.228v-124.645l-121.344-82.547v207.192h-72.229v-305.423Z" style="fill: #116e78; stroke: #116e78; stroke-miterlimit: 10; stroke-width: 13px;"/>
    <path d="M1416.811 639.529l32.193-53.243c28.891 25.589 66.45 29.717 91.214 29.717 29.304 0 45.813-12.382 45.813-28.892 0-19.811-30.13-29.716-53.242-36.32-49.941-14.033-106.898-33.432-106.898-96.992 0-55.719 42.099-91.627 114.327-91.627 42.099 0 75.117 7.842 108.136 29.716l-25.589 52.005c-30.542-15.272-58.608-20.224-82.547-20.224-24.764 0-41.273 9.493-41.273 24.351 0 19.398 26.415 27.653 50.766 34.669 54.068 15.684 109.374 37.559 109.374 98.644 0 57.37-41.273 96.167-118.867 96.167-38.384 0-87.912-7.017-123.407-37.971z" style="fill: #116e78; stroke: #116e78; stroke-miterlimit: 15;"/>
  </g>
</svg>