<?xml version="1.0" encoding="UTF-8"?><svg id="MESA_1" xmlns="http://www.w3.org/2000/svg" viewBox="0 0 2000 2000"><path d="M518.3762,1403.784c78.3851-64.1574,166.0549-118.0409,263.5615-148.0604,66.831-20.5754,162.8577-37.7185,230.8334-18.0346,2.9607.8574,18.336,5.7749,18.8204,7.8862-22.4415,38.3114-45.7745,76.1321-69.4646,113.6762-28.3141,44.8725-92.0183,127.2531-94.9419,178.372-1.9034,33.2802,16.4955,55.8067,41.1505,75.0266-8.3166.2778-16.7216-.3197-25.0438-.0348-159.0649,5.4462-244.1967,21.3402-244.1968,21.3402-16.1845,4.088-46.3465,12.5003-103.4011,26.4988-12.6062,3.0929-18.8843,4.7697-21.5436,5.2123-156.5255,26.053-268.0059-90.6896-266.9253-242.3908l.0916-720.0415c-.2365-61.6801-7.7295-111.4943-14.8324-146.2675-13.3288-65.2533-25.9438-80.7739-37.9378-89.8311-21.7746-16.4429-40.1692-10.5763-81.805-24.1232-34.458-11.2115-59.8849-27.6022-75.4559-39.1447,10.1457,1.5204,19.7973,5.185,29.7874,7.4209,58.1124,13.0061,115.9712,15.3506,174.8484,5.5505,107.5739-17.9057,205.402-75.8302,274.2085-159.6387l-.0418,1128.3073,2.2883,18.2763Z" style="fill:#5271fe;"/><path d="M1012.7672,801.6124c25.3473.4957,50.8074-.6652,76.1575-.0515,60.3695,1.4613,175.2115,7.1624,225.9575,39.5795,100.7526,64.3622,34.4823,189.0224-10.1287,266.3348-47.2114,81.8189-101.0984,159.5096-152.4518,238.6319-17.409,26.8228-42.1036,61.8646-55.6685,89.877-8.6647,17.8929-12.4935,23.1762,9.4552,28.3655,39.6074,9.3643,97.6875,6.4463,139.4002,7.2561,15.0231.2917,30.1587-.9872,45.0421,1.0722,3.3672-32.7814,15.9282-66.6609,34.647-93.6849,74.5494-107.6251,191.2221-136.2625,305.672-68.3195,98.2819,58.3447,129.3695,171.5284,98.224,278.8956-31.9566,110.1635-141.7969,166.151-252.2859,150.7027-65.3706-9.14-124.7594-53.985-157.1532-110.6059-5.1649-9.0277-8.8517-19.2746-14.2042-27.9295-25.465,2.6897-51.0263,5.6699-76.5734,7.5799-58.3602,4.3632-117.1441,8.8754-175.543,12.2218-51.6927,2.9621-96.9771,5.8673-140.4381-27.3049-56.378-43.0313-16.537-101.5368,12.3347-147.462,88.4623-140.7136,183.9968-284.0661,263.2979-429.9871,7.4149-13.6439,24.1178-41.3431,20.678-56.6185-1.8739-8.322-22.0881-10.667-29.3614-11.744-47.5174-7.0361-97.4391-4.2852-145.3413-5.7593-6.4803-.1995-13.0211.2419-19.4946.04l-1.0594,92.8229c-1.9727,15.7174-1.2012,31.8582-2.2796,47.717-1.449,21.3131-3.9976,73.9779-28.8304,81.1631-10.8324,3.1343-17.3428-.4301-27.3815-1.5961-22.1866-2.577-44.3803-5.4103-66.5591-7.8803-94.0904-10.4785-273.144-11.3413-290.3879-135.1381-11.7127-84.0881,49.2579-136.1983,121.5031-161.5423,36.6156-12.8449,86.955-24.7653,125.5785-27.7441,12.2176-.9423,26.2055-2.979,42.7438-1.6976,3.8763.3004,7.068.6739,9.2115.9512.1896-3.3119.3792-6.6238.5688-9.9357-1.4052-21.0672-2.8104-42.1345-4.2156-63.2017-4.6269-40.7228-10.7359-85.3661-32.4224-120.9002-43.7167-71.6316-152.5846-63.9526-224.42-78.8923-18.5608-3.8601-30.7901-5.7215-35.9124-26.3055-4.6695-18.764-5.208-54.1919,16.1329-62.7666,25.8881-10.4018,91.397-8.0023,120.5781-6.1714,87.8293,5.5109,157.9362,24.5226,213.1579,96.8206,32.9299,43.113,48.3602,84.4337,54.9692,138.3507,4.254,34.7046,5.4956,69.9409,6.8022,104.8566ZM906.1137,1034.9237v-90.5492c0-2.8009-6.5352-.5493-8.2875-.5025-42.4825,1.1358-144.2447,4.0623-171.6985,41.6121-12.9074,17.6541,6.7437,30.4954,21.6266,36.1443,50.0372,18.9918,105.9152,11.8151,158.3594,13.2953ZM1494.7323,1384.1146c-76.5166,4.4246-108.3764,99.4592-88.3406,164.3493,32.0326,103.7445,167.775,105.3092,210.1916,7.4981,40.0964-92.4608-23.1938-177.5523-121.851-171.8474Z" style="fill:#5271fe;"/><path d="M1608.0376,1032.9989c39.3002-.8058,82.7428,18.6977,116.5426,37.2877,95.1397,52.3268,174.9292,137.4779,215.6282,238.7846,19.6474,48.9056,43.1104,151.1344-10.0262,186.0716-35.5257,23.3581-65.0559,6.6419-85.7066-24.7879-20.3261-30.9358-38.0195-64.9708-57.9619-96.4718-29.9642-47.3313-57.1025-85.6966-104.5493-117.6574-48.2746-32.5184-116.7628-44.2345-148.3074-98.3421-37.4556-64.2466,3.388-123.4291,74.3805-124.8847ZM1720.6563,1168.403c20.2845-4.7018,35.4092-21.7896,24.0713-42.7134-3.9487-7.2872-15.9603-16.9935-22.0759-6.9601-4.7366,7.771,8.8745,14.7241,6.2541,22.907-3.1842,9.9437-25.6466,5.913-27.3159,20.4752-.5632,4.9127,1.2579,8.8652,1.2311,13.3531-.1249,20.8881-14.973,36.8578-36.4542,29.6975-6.2999-2.0999-23.8071-16.9815-27.5971-4.7388-2.3288,7.5225,5.6042,12.1584,10.935,15.8446,17.3778,12.0166,36.7763,13.9449,54.0349.2133,14.9707-11.9113,18.0081-29.8366,16.9166-48.0785ZM1742.7275,1220.4604c-.4614-1.6908.445-1.8466,1.0916-2.7856,6.793-9.8652,30.398-24.6612,41.9979-27.9972,5.6127-1.6142,30.5443-3.3034,24.5461-14.0251-4.9713-8.8863-20.7899-4.9326-29.2279-2.8781-30.7907,7.4967-71.1336,42.5153-67.1804,77.015,2.5222,22.0111,27.122,31.7768,44.3347,17.9089,21.2979-17.1592,9.0762-44.312-15.562-47.2379ZM1829.1553,1233.0269c-21.8956,1.4709-43.9782,16.3473-51.8284,37.0432-7.2678,19.1606-1.0665,43.6964,21.7879,46.7671,34.9166,4.6914,73.1487-41.7552,49.1288-72.4569-1.2852-1.6427-9.2004-9.9119-10.466-10.6396-3.2907-1.8921-5.2906-.9376-8.6222-.7138Z" style="fill:#5271fe;"/><path d="M1156.0893,1374.9055c2.3827,11.0282,5.6961,21.9085,7.4615,33.0927,1.795,11.3721,3.6055,26.0405,3.7586,37.4471.0195,1.4491-.4633,6.5057-1.3718,7.0723-2.3607,1.4724-53.4563-2.3045-55.399-4.2961,1.4675-7.3628,6.7276-14.4973,10.6542-21.0089,7.8427-13.0061,22.8194-40.1412,31.7538-50.4624.9904-1.1441,1.0818-2.3326,3.1428-1.8448Z" style="fill:#5271fe;"/><path d="M1735.7201,1238.4718c12.6124-3.7424,21.2878,10.8522,10.3147,15.8531-10.1919,4.6449-18.4025-13.4533-10.3147-15.8531Z" style="fill:#5271fe;"/><path d="M1822.4294,1251.836c22.2026-3.5904,15.5511,24.9664,4.7761,35.8927-5.8004,5.8819-25.7623,16.3823-31.3973,6.8649-9.7351-16.4424,10.1908-40.1006,26.6212-42.7576Z" style="fill:#5271fe;"/></svg>