<?xml version="1.0" encoding="UTF-8"?>
<svg xmlns="http://www.w3.org/2000/svg" version="1.1" viewBox="0 0 267.7 311.7">
  <defs>
    <style>
      .cls-1 {
        fill: #982332;
      }
    </style>
  </defs>
  <!-- Generator: Adobe Illustrator 28.7.1, SVG Export Plug-In . SVG Version: 1.2.0 Build 142)  -->
  <g>
    <g id="Ebene_1">
      <path class="cls-1" d="M160.3,96.9h-45.5v-29l-17.5-50h80.5l-17.5,50v29ZM130.8,81.1h13.7v-15.8l11-31.5h-35.8l11,31.5v15.8h.1Z"/>
      <rect class="cls-1" x="122.8" y="61.1" width="29.6" height="11.1"/>
      <polygon class="cls-1" points="208.9 228.7 103 228.7 103 132.3 209.3 132.3 209.3 143.4 114.1 143.4 114.1 217.6 208.9 217.6 208.9 228.7"/>
      <path class="cls-1" d="M41.4,298.1l-14.6-31,30-20.5v-121c0-24.5,20-44.5,44.5-44.5h4.1v15.9h-4.1c-15.8,0-28.6,12.8-28.6,28.6v129.4l-25.7,17.6,2.6,5.6,17.3-6.4h141.4l17.3,6.4,2.6-5.6-25.7-17.6V125.5c0-15.8-12.8-28.6-28.6-28.6h-36.3v-15.9h36.3c24.5,0,44.5,19.9,44.5,44.5v121l30,20.5-14.6,31-28.3-10.4H69.7l-28.3,10.4h0Z"/>
    </g>
  </g>
</svg>