<?xml version="1.0" encoding="UTF-8"?>
<svg xmlns="http://www.w3.org/2000/svg" version="1.1" viewBox="0 0 267.7 311.7">
  <defs>
    <style>
      .cls-1 {
        fill: none;
        stroke: #982332;
        stroke-miterlimit: 10;
        stroke-width: 9px;
      }
    </style>
  </defs>
  <!-- Generator: Adobe Illustrator 28.7.1, SVG Export Plug-In . SVG Version: 1.2.0 Build 142)  -->
  <g>
    <g id="Ebene_1">
      <g>
        <path class="cls-1" d="M159.9,238.7s8.1-35.8,42.9-34.6c34.8,1.1,43.4-8.3,43.4-8.3,0,0,7.8,44.7-28,60.6-35.8,15.8-58.3-6.4-58.3-6.4M159.9,146.5v116.2h-15.2v-120.2M177.3,46.3h0c-5.9,0-10.7,4.8-10.7,10.7v35.1c0,5.9,4.8,10.7,10.7,10.7s10.7-4.8,10.7-10.7v-35.1c0-5.9-4.8-10.7-10.7-10.7ZM212.2,96.4s-16.2-.2-26.3,2.5M198.7,123.6s-3.6-11.9-20.9-20.8M144.8,116.7s5.1-12.2,32.1-13.9M151.8,91.6s-22.6,4.5-21.4,23.8c0,0-3.4,31,63.8,23.9,0,0,33.8,2,58.6,7.9,0,0,3.7-66.8-35.4-69.4,0,0-6.7.3-18,2.5"/>
        <path class="cls-1" d="M224.2,238l-22.3-12.2M201.9,248.8l-21.2-12M192.9,218.7l-12.1,18M234.3,213s-48.5,15.6-72.3,37.2"/>
        <path class="cls-1" d="M126.6,142.7l-14.3-8.6M114,113.2l-3.5,16.3M55.3,162.9c-11.1,21-12.4,42.1-3,47,9.4,5,26.1-8,37.1-29,5.5-10.4,13.8-31.8,13.6-40.2M53.2,156.5c-23.2-5-40.2-17.5-38-28,2.3-10.4,22.9-14.8,46.1-9.8,11.5,2.5,33.3,9.9,39.5,15.4M113.1,134.2c0,3.1-2.5,5.5-5.5,5.5s-5.5-2.5-5.5-5.5,2.5-5.5,5.5-5.5,5.5,2.5,5.5,5.5ZM102,137.4c2.8,6.7-5.5,16.7-19.6,23.1-14,6.3-31,.5-31,.5,0,.7,4.5-14.8,19.8-23.4,13.6-7.6,28-7,30.8-.3Z"/>
      </g>
    </g>
  </g>
</svg>