<?xml version="1.0" encoding="UTF-8"?>
<svg xmlns="http://www.w3.org/2000/svg" version="1.1" viewBox="0 0 267.7 311.7">
  <defs>
    <style>
      .cls-1 {
        fill: #982332;
      }
    </style>
  </defs>
  <!-- Generator: Adobe Illustrator 28.7.1, SVG Export Plug-In . SVG Version: 1.2.0 Build 142)  -->
  <g>
    <g id="Ebene_1">
      <g>
        <path class="cls-1" d="M123,158h17.1c8.1-8.1,17.5-12.7,26.9-12.7,16.6,0,32.9,14.1,42.9,36.6h14.2c-10.6-27.2-29.5-45.5-50.1-48.9v-38.7c0-16.9-14-30.7-31.1-30.7h-16.2v16c0,16.9,14,30.7,31.1,30.7h7v22.2c-15.5.8-30.3,10.1-41.7,25.4ZM135.8,79.6v-6.9h7c12.1,0,21.9,9.7,21.9,21.6v1.2l-11.6-11.4-5.8,5.8,11.6,11.4h-1.2c-12.1,0-21.9-9.7-21.9-21.6Z"/>
        <path class="cls-1" d="M98.5,185.9c.4-3.4,3.3-5.9,6.8-5.9h59.6c3.5,0,6.9,1.4,9.4,3.8l20.4,20.1h54.4v-12.9h-49l-16.5-16.3c-5-4.9-11.6-7.6-18.6-7.6h-48.9l-29.2-27.4c-7.9-7.4-20.1-7.3-27.9.4l-2,2-2.6-2.5c-7.9-7.4-20.1-7.3-27.8.3l-.6.6c-7.7,7.6-7.9,19.7-.3,27.5l65,67c8.3,8.5,19.9,13.4,31.8,13.4h126.7v-32.8h-13.1v19.8h-113.6c-8.4,0-16.5-3.4-22.3-9.4l-65-67c-2.6-2.7-2.5-6.8.1-9.4l.6-.6c2.6-2.6,6.8-2.7,9.5-.1l40.1,37.6c-.5,9.7,6.2,18.4,16,20.3l58.2,11.2,2.5-12.7-58.2-11.2c-3.5-.7-5.9-3.9-5.4-7.4v-.9ZM68.2,149.1c2.6-2.6,6.8-2.7,9.5-.1l20.6,19.3c-3,1.1-5.7,3-7.8,5.3l-24.1-22.6,1.8-1.8Z"/>
        <path class="cls-1" d="M213.3,90.9v-12h-12.2c-12.4,0-22.6,10-22.6,22.3v12h12.2c12.4,0,22.6-10,22.6-22.3ZM186.8,101.1c0-7.8,6.4-14.1,14.3-14.1h3.9v3.9c0,7.8-6.4,14.1-14.3,14.1h-3.9v-3.9Z"/>
      </g>
    </g>
  </g>
</svg>