<?xml version="1.0" encoding="UTF-8"?>
<svg xmlns="http://www.w3.org/2000/svg" version="1.1" viewBox="0 0 267.7 311.7">
  <defs>
    <style>
      .cls-1 {
        fill: none;
        stroke: #982332;
        stroke-miterlimit: 10;
        stroke-width: 9px;
      }
    </style>
  </defs>
  <!-- Generator: Adobe Illustrator 28.7.1, SVG Export Plug-In . SVG Version: 1.2.0 Build 142)  -->
  <g>
    <g id="Ebene_1">
      <g id="Ebene_1-2" data-name="Ebene_1">
        <g>
          <path class="cls-1" d="M13,243.3h60.3M106.5,243.3h32.2M181.1,243.3h73.9M58.1,258.9h178.1M35.7,277.8h176M225,271.4h22.4M20.7,263.9h22.5M181.1,243.3h73.9-73.9ZM106.5,243.3h32.2-32.2ZM13,243.3h60.3H13ZM58.1,258.9h178.1H58.1ZM20.7,263.8h22.5-22.5ZM225,271.4h22.5-22.5ZM35.7,277.8h176H35.7Z"/>
          <path class="cls-1" d="M168.2,89.6s2.5-14.9,15.5-14.9,13.3,14.9,13.3,14.9c0,0,10.9,1.8,9.9,14.7-.7,8.2-7.8,8.6-7.8,8.6h-32s-12.6.2-11.6-13.3,12.7-10,12.7-10ZM133.7,44.7s7.3,4,8.4,14.2c0,0,16.6.3,23.3,16.7M105.9,41.2s-13.4,6.6-12,23.6c0,0-16.3,7.5-13.6,25.4,0,0-16.3-3-16,13.6s26,23.4,40.3,18c0,0,6.6,14.5,19.8,15.9,12.7,1.4,17.7-2.3,22.3-10.1,0,0,18.8,8.3,30.6-7.9"/>
          <path class="cls-1" d="M59.1,187s2.9-14.6,18.2-14.6,15.6,14.6,15.6,14.6c0,0,12.8,1.8,11.6,14.4-.8,8-9.1,8.4-9.1,8.4h-51.1v-13c0-13.2,14.9-9.8,14.9-9.8Z"/>
          <path class="cls-1" d="M142.1,58.9s3.7-22,22.2-22,16.8,11.2,16.8,11.2c0,0,19.5-8.4,25.8,10.3,0,0,21.2,3.6,17.6,23.4-2.9,16.1-18,17.3-18,17.3"/>
          <path class="cls-1" d="M148.8,168.6c-33.3,0-30.6-12.1-30.6-14.7v-2.2c-25.9-3.4-21.3-28.2-21.3-28.2"/>
          <path class="cls-1" d="M133.9,148.3s-1.3,18.1,16.2,20.4"/>
          <path class="cls-1" d="M148.8,168.6c19.1.7,17.3-14.3,17.3-14.3v-1.6c30.8.5,21.9-39.7,21.9-39.7"/>
          <path class="cls-1" d="M155.4,205.5h31.7M164.5,222.4h26.1M245.1,230.8h-32.8M61,230.8h35.4M107.7,222.4h13.2M103.2,205.5h35.4M155.4,212.1v-44.3M138.6,212.1v-44.3"/>
          <path class="cls-1" d="M198.5,192s1.2-17.1,18.2-10.3c0,0,12-3.3,15.6,4.5,4.6,10.1-3.6,13.5-3.6,13.5,0,0,0,10.9-8,10.2h-33.5v-10.9c1.1-9,11.2-7,11.2-7h.1Z"/>
          <line class="cls-1" x1="227.5" y1="205.5" x2="244.4" y2="205.5"/>
          <ellipse class="cls-1" cx="120.3" cy="38.4" rx="4.1" ry="4.2"/>
        </g>
      </g>
    </g>
  </g>
</svg>