<?xml version="1.0" encoding="UTF-8"?>
<svg xmlns="http://www.w3.org/2000/svg" version="1.1" viewBox="0 0 267.7 311.7">
  <defs>
    <style>
      .cls-1 {
        fill: none;
        stroke: #982332;
        stroke-miterlimit: 10;
        stroke-width: 13px;
      }
    </style>
  </defs>
  <!-- Generator: Adobe Illustrator 28.7.1, SVG Export Plug-In . SVG Version: 1.2.0 Build 142)  -->
  <g>
    <g id="Ebene_1">
      <g id="Ebene_1-2" data-name="Ebene_1">
        <g>
          <path class="cls-1" d="M224.8,95.4c13.1-30.7-19.3-50.2-40-50.2s-16,2.9-22.2,8.2c-6.6-10.2-17.8-16.4-29.9-16.6-10.6,0-20.6,4.9-27.2,13.2-5.2-3.1-11.2-4.7-17.3-4.8-20.7,0-37.5,18.9-37.5,42v.3c-19.4,1.6-34.7,19.8-34.7,41.9s16.8,42,37.5,42,15.8-2.9,22-8c6.6,6.8,15.6,10.8,25.1,10.9,6.5-.1,12.8-1.9,18.3-5.3,5.5-3.3,10.1-8.1,13.2-13.8,2.9,6.4,7.5,11.9,13.3,15.7,5.8,3.9,12.6,6,19.6,6.2,10.8-.2,20.9-5.2,27.6-13.6,6.2,5.1,13.9,7.9,22,8,20.7,0,37.5-18.9,37.5-42s-12.5-37.3-29.8-41.3"/>
          <path class="cls-1" d="M188.3,242.4c1.9,1.1,7.4,2.3,9.6,2.3s6.1-1.2,8.5-3.3c1.9,1.1,4,1.6,6.1,1.6,3.8-.2,7.3-1.8,9.8-4.6s3.9-6.4,3.7-10.2c0-2.9-.7-5.8-2.3-8.3s-3.8-4.4-6.5-5.6c-.2-3.5-1.6-6.8-4.1-9.3s-5.8-3.9-9.3-4.1c-2.1,0-4.2.5-6,1.6-2.4-2.6-5.7-4-9.3-4.1-3.2,0-6.2,1.2-8.6,3.4-1.5-.6-3.1-.9-4.7-.9-3.4.1-6.6,1.5-9.1,3.9s-4,5.5-4.2,8.9c-3.1.9-5.8,2.9-7.7,5.5s-2.8,5.8-2.7,9c-.2,3.8,1.2,7.4,3.7,10.2s6,4.4,9.8,4.6c2.2,0,4.4-.6,6.3-1.8,2.2,1.6,4.8,2.4,7.6,2.4s7.7-.6,9.4-1.4"/>
          <path class="cls-1" d="M157.1,191.1l-25,22.2M110,189.7l22.2,25M132.1,156.6v121.7M188.7,233.5l-.6,44.8"/>
        </g>
      </g>
    </g>
  </g>
</svg>