<svg viewBox="0 0 80 80" fill="none" id="fairtrade-international"
        xmlns="http://www.w3.org/2000/svg">
        <g clip-path="url(#aqclip0_215_5502)">
            <path d="M67.0504 8.7706C65.2555 8.7706 63.7969 7.31197 63.7969 5.51913C63.7969 3.72629 65.2555 2.26807 67.0504 2.26807C68.8424 2.26807 70.2994 3.72629 70.2994 5.51913C70.2994 7.31197 68.8424 8.7706 67.0504 8.7706ZM67.0504 2.66584C65.4761 2.66584 64.1959 3.9465 64.1959 5.51954C64.1959 7.09299 65.4761 8.37365 67.0504 8.37365C68.623 8.37365 69.9025 7.09299 69.9025 5.51954C69.9025 3.9465 68.623 2.66584 67.0504 2.66584Z" fill="#1E1E1E"/>
            <path d="M65.5942 3.55334H67.4925C68.493 3.55334 68.6763 4.29107 68.6763 4.61502C68.6763 5.02879 68.466 5.38473 68.094 5.51063C68.4032 5.64718 68.5706 5.76241 68.5706 6.46282C68.5706 7.01191 68.5706 7.14723 68.7379 7.2112V7.31085H67.8701C67.8168 7.13206 67.7861 6.93891 67.7861 6.5518C67.7861 6.0388 67.7549 5.84032 67.1738 5.84032H66.3623V7.31085H65.5942V3.55334ZM67.2833 5.20758C67.6922 5.20758 67.8902 5.06611 67.8902 4.69458C67.8902 4.49569 67.8017 4.20249 67.3403 4.20249H66.3619V5.20799L67.2833 5.20758Z" fill="#1E1E1E"/>
            <path d="M64.3378 63.5926C63.3507 62.8868 62.3703 62.8741 61.537 62.8602H58.1772V72.3169H61.1667C62.303 72.3046 63.2925 72.2882 64.2246 71.7416C65.6004 70.9501 66.1544 69.3065 66.1565 67.6728C66.1565 66.6009 65.9092 64.6981 64.3378 63.5926ZM64.446 67.7036C64.4477 69.7228 63.6714 70.392 62.9415 70.6696C62.5117 70.8275 62.0176 70.8956 60.6459 70.8956H59.777V64.295H60.8399C62.052 64.309 62.3703 64.3237 62.9103 64.5657C64.312 65.2415 64.446 66.7764 64.446 67.6868V67.7036ZM15.9909 62.8602L12.8034 72.3169H14.5118L15.0728 70.4273H18.8536L19.4179 72.3169H21.1222L17.8945 62.8602H15.9909ZM18.4391 69.0605H15.4894L16.9739 64.1482L18.3989 68.9281L18.4391 69.0605ZM22.2605 72.319L23.834 72.3169V62.8602H22.2605V72.319ZM8.73753 64.27H13.3381V62.8602H7.15137V72.3185H8.73753V68.2244H12.7759V66.8847H8.73753V64.27ZM74.0938 64.27V62.8602H67.4289V72.3169H74.0717V70.8956H69.0003V68.0997H73.653V66.7485H69.0003V64.27H74.0938ZM46.3204 68.4105L46.3798 68.3937C46.9068 68.2317 48.2071 67.6257 48.2104 65.8369C48.2071 64.7449 47.7597 64.015 47.1782 63.5364C46.3634 62.8758 45.538 62.875 44.2475 62.861H41.2683V72.3177H42.8553V68.7316H44.6358L46.5533 72.3177H48.3818L46.256 68.4306L46.3204 68.4105ZM45.8254 67.1852C45.4248 67.3927 44.9864 67.4108 44.7867 67.4186C44.4451 67.4337 44.2097 67.4452 43.5901 67.4452H42.8553L42.8569 64.3155V64.2114H43.7951C44.8597 64.2114 45.3403 64.2233 45.7578 64.43C46.5439 64.8306 46.582 65.5757 46.58 65.8078H46.5767L46.58 65.8234V65.8267C46.582 66.5636 46.2281 66.979 45.8254 67.1852ZM69.679 29.057C69.679 13.0112 56.6694 0 40.6216 0C24.5733 0 11.5642 13.0112 11.5642 29.057C11.5642 45.1065 24.5738 58.1119 40.6216 58.1119C56.6694 58.1119 69.679 45.1065 69.679 29.057ZM52.2029 62.8602L49.0158 72.3185H50.7238L51.2823 70.4269L55.0656 70.4293L55.6262 72.3169H57.3345L54.1069 62.8602H52.2029ZM51.701 69.0605L53.1805 64.1499L54.6482 69.0605H51.701ZM33.2829 64.295H35.8955V72.3169H37.4976V64.295H40.168V62.8602H33.2829V64.295ZM30.8508 68.4126L30.9106 68.395C31.4372 68.2293 32.7391 67.6253 32.7391 65.8382C32.7367 64.7445 32.2901 64.0121 31.7119 63.536C30.8922 62.8754 30.0675 62.8745 28.7766 62.8606H25.8011V72.3173H27.3865V68.7329H29.1678L31.0829 72.3173H32.9147L30.788 68.4302L30.8508 68.4126ZM30.357 67.1852C29.9556 67.3927 29.516 67.4108 29.3159 67.4186C28.9743 67.4313 28.7385 67.4465 28.1188 67.4465H27.3865V64.2114H28.3251C29.3913 64.2114 29.8719 64.2233 30.289 64.43C31.0792 64.8326 31.1132 65.5851 31.1124 65.8111H31.0984L31.1132 65.8234C31.1132 65.8234 31.1124 65.8267 31.1132 65.8267C31.1128 66.5636 30.7573 66.979 30.357 67.1852Z" fill="#1E1E1E"/>
            <path d="M60.7667 46.2449L60.7646 46.2466C64.6632 41.6459 67.0166 35.5408 67.0166 29.0349C67.0166 25.7662 66.4228 22.6374 65.339 19.7501C61.7652 9.9132 51.9673 2.58765 40.8994 2.58765C40.7038 2.58765 40.181 2.602 40.181 2.602C38.122 2.67417 36.0577 3.03996 34.3694 3.55747C33.5796 3.79901 30.7718 4.76391 28.7128 6.86308C26.5476 9.10126 25.2178 12.1444 25.2178 15.5029C25.2178 20.9815 28.9933 25.5026 34.0795 27.571C36.2652 28.4334 38.6518 28.9722 40.4057 29.4011C43.4533 30.1421 49.8677 31.2128 55.2089 34.7407L55.4135 34.874C58.7524 37.1511 60.7667 40.501 60.7667 45.9308M44.5421 27.017C40.7013 27.017 37.5917 23.9074 37.5917 20.072C37.5917 16.2333 40.7013 13.122 44.5421 13.122C48.3746 13.122 51.4871 16.2328 51.4871 20.072C51.4871 23.9074 48.3746 27.017 44.5421 27.017Z" fill="#0FC0FC"/>
            <path d="M14.1416 29.1254C14.1416 22.1099 16.9215 15.6664 21.4056 10.9358C20.834 12.4071 20.0225 15.0857 20.0225 18.1847C20.0225 21.7162 21.0665 25.8744 24.6793 29.6815L25.3407 30.3811C30.4929 35.8092 35.1238 40.6797 35.1238 47.1695C35.1238 49.3864 34.578 51.7964 33.3298 54.4774C22.2725 51.3375 14.1416 41.1709 14.1416 29.1254Z" fill="#D4FF47"/>
            <path d="M31.3256 75.5139C31.3256 74.7765 31.0226 74.2734 30.6252 73.9498C30.0655 73.4983 29.5012 73.4983 28.656 73.4914H26.6331V79.8393H27.8125V77.483H28.8713L30.1282 79.8393H31.4901L30.0761 77.2583C30.4358 77.1505 31.3256 76.7273 31.3256 75.5139ZM29.0099 76.4841C28.7815 76.4931 28.629 76.5021 28.2246 76.5021H27.8125V74.5157H28.3604C29.0604 74.5157 29.3683 74.5243 29.6189 74.6511C30.1102 74.9016 30.1204 75.3703 30.1204 75.5048C30.1204 76.4312 29.2679 76.4759 29.0099 76.4841ZM36.3133 77.9776L33.5084 73.4914H32.4365V79.8393H33.5982L33.5265 75.3884L36.3031 79.8393H37.3373V73.4914H36.1719L36.3133 77.9776ZM22.0809 77.0684H25.1356V76.0441H22.0809V74.5518H25.4234V73.491H20.9118V79.8389H25.649V78.7686H22.0809V77.0684ZM15.4627 74.5703H17.1797V79.8393H18.3648V74.5703H20.1191V73.491H15.4627V74.5703ZM13.6219 77.9776L10.8137 73.4914H9.74631V79.8393H10.9048L10.8318 75.3884L13.61 79.8393H14.6446V73.4914H13.4759L13.6219 77.9776ZM7.15137 79.8393H8.31885V73.4914H7.15137V79.8393ZM66.0728 73.491L63.9318 79.8389H65.1993L65.568 78.5976H67.9514L68.3196 79.8389H69.5855L67.4224 73.491H66.0728ZM65.8817 77.5654L66.7658 74.6412L67.634 77.5654H65.8817ZM62.1599 77.9776L59.3517 73.4914H58.2839V79.8393H59.444L59.3689 75.3884L62.1504 79.8393H63.1842V73.4914H62.0143L62.1599 77.9776ZM71.5518 78.7596V73.4811H70.3548V79.8393H74.0676V78.7596H71.5518ZM40.2234 73.491L38.0869 79.8389H39.3557L39.7202 78.5976H42.1032L42.4755 79.8389H43.7394L41.5746 73.491H40.2234ZM40.0397 77.5654L40.9144 74.6412L41.7907 77.5654H40.0397ZM43.3531 74.5703H45.0676V79.8393H46.2556V74.5703H48.0099V73.491H43.3531V74.5703ZM54.1339 73.329C52.4001 73.329 51.0846 74.7318 51.0846 76.6739C51.0846 77.4732 51.3028 78.2999 51.9343 79.029C52.5793 79.7762 53.3154 80.0001 54.1142 80.0001C56.0711 80.0001 57.1652 78.482 57.173 76.6649C57.184 74.4969 55.7078 73.329 54.1339 73.329ZM54.1544 78.9043C53.1022 78.9043 52.3091 78.0489 52.3091 76.6202C52.3091 75.2969 53.0378 74.4165 54.1249 74.4165C55.3744 74.4165 56.0149 75.5585 55.9895 76.7986C55.96 78.3286 54.9459 78.9043 54.1544 78.9043ZM48.8099 79.8393H49.9803V73.4914H48.8099V79.8393Z" fill="#787878"/>
        </g>
        <defs>
            <clipPath id="aqclip0_215_5502">
                <rect width="80" height="80" fill="#fff"/>
            </clipPath>
        </defs>
    </svg>