<?xml version="1.0" encoding="UTF-8"?>
<svg id="Capa_1" xmlns="http://www.w3.org/2000/svg" version="1.1" viewBox="0 0 2200 2200">
  <!-- Generator: Adobe Illustrator 30.2.1, SVG Export Plug-In . SVG Version: 2.1.1 Build 1)  -->
  <defs>
    <style>
      .st0 {
        fill: #fff;
      }

      .st1 {
        fill: #ffbe30;
      }

      .st2 {
        fill: #005068;
        stroke: #ffbe30;
        stroke-miterlimit: 10;
        stroke-width: 120px;
      }
    </style>
  </defs>
  <rect class="st2" x="64.48" y="64.48" width="2071.05" height="2071.05"/>
  <g>
    <path class="st0" d="M653.31,351.88v111.92h-176.78v62.32h127.18v106.19h-127.18v169.78h-141.17v-450.2h317.94,0Z"/>
    <path class="st0" d="M803.7,776.65c-35.4-19.92-63.49-47.47-84.25-82.66-20.78-35.18-31.16-74.82-31.16-118.91s10.38-83.72,31.16-118.91c20.77-35.18,48.85-62.63,84.25-82.35,35.39-19.71,74.29-29.57,116.68-29.57s81.17,9.86,116.37,29.57c35.18,19.71,63.05,47.16,83.62,82.35,20.56,35.19,30.84,74.83,30.84,118.91s-10.28,83.73-30.84,118.91c-20.57,35.19-48.55,62.74-83.94,82.66-35.4,19.93-74.08,29.89-116.05,29.89s-81.29-9.96-116.68-29.89h0ZM985.24,647.88c15.26-18.01,22.89-42.29,22.89-72.81s-7.63-55.42-22.89-73.44c-15.26-18.01-36.88-27.03-64.86-27.03s-50.23,9.01-65.5,27.03c-15.26,18.02-22.89,42.5-22.89,73.44s7.63,54.79,22.89,72.81c15.26,18.02,37.09,27.03,65.5,27.03s49.6-9,64.86-27.03Z"/>
    <path class="st0" d="M1587.42,526.74v116.37h-296.32v-116.37h296.32Z"/>
    <path class="st1" d="M566.91,1293.83l-86.26-161.51h-.65v161.51h-143.99v-450.2h214.04c37.18,0,68.96,6.47,95.34,19.39,26.37,12.94,46.15,30.52,59.35,52.78,13.18,22.26,19.78,47.37,19.78,75.35,0,30.1-8.54,56.81-25.62,80.12-17.09,23.32-41.62,40.06-73.62,50.23l99.88,172.32h-158.26,0ZM480,1038.2h57.08c13.83,0,24.21-3.07,31.13-9.22,6.91-6.14,10.38-15.79,10.38-28.93,0-11.86-3.57-21.19-10.7-27.98-7.13-6.78-17.41-10.17-30.81-10.17h-57.08v76.31h0Z"/>
    <path class="st1" d="M914.56,956.17v55.32h142.69v106.19h-142.69v63.59h162.15v112.55h-306.14v-450.2h306.14v112.55h-162.15Z"/>
    <path class="st1" d="M1174.97,1260.44c-35.67-25.22-55.03-62.21-58.05-110.96h153.07c2.16,25.86,13.83,38.79,35.02,38.79,7.78,0,14.37-1.8,19.78-5.41,5.4-3.6,8.11-9.22,8.11-16.85,0-10.59-5.84-19.18-17.51-25.75-11.67-6.57-29.84-14.09-54.48-22.57-29.41-10.17-53.73-20.13-72.97-29.89-19.25-9.75-35.78-23.94-49.62-42.6-13.84-18.65-20.54-42.6-20.11-71.85,0-29.25,7.67-54.15,23.03-74.72,15.34-20.56,36.32-36.14,62.91-46.74,26.59-10.59,56.53-15.9,89.83-15.9,56.21,0,100.86,12.72,133.94,38.15,33.08,25.44,50.48,61.26,52.21,107.46h-155.02c-.44-12.72-3.68-21.83-9.73-27.34-6.06-5.5-13.41-8.27-22.05-8.27-6.06,0-11.03,2.02-14.92,6.04-3.89,4.03-5.84,9.65-5.84,16.85,0,10.17,5.73,18.55,17.19,25.12,11.45,6.58,29.72,14.53,54.81,23.85,28.96,10.6,52.86,20.78,71.67,30.52,18.81,9.76,35.13,23.32,48.97,40.7,13.83,17.39,20.75,39.22,20.75,65.5s-6.92,52.25-20.75,74.08c-13.84,21.84-33.95,38.9-60.32,51.19-26.38,12.3-57.72,18.44-94.05,18.44-54.92,0-100.21-12.61-135.88-37.83Z"/>
    <path class="st1" d="M1897.19,843.62v111.91h-121.94v338.29h-143.99v-338.29h-120.64v-111.91h386.57Z"/>
  </g>
  <g>
    <path class="st1" d="M371.63,1818.01c-18.17-8.24-28.02-20.32-29.56-36.25h77.95c1.1,8.45,7.04,12.67,17.83,12.67,3.96,0,7.32-.59,10.07-1.77,2.75-1.17,4.13-3.01,4.13-5.5,0-3.46-2.97-6.26-8.92-8.41-5.94-2.15-15.19-4.6-27.74-7.37-14.98-3.32-27.36-6.58-37.16-9.76-9.8-3.18-18.22-7.82-25.27-13.92-7.05-6.09-10.46-13.92-10.24-23.47,0-9.56,3.91-17.69,11.73-24.41,7.81-6.72,18.5-11.8,32.04-15.27,13.54-3.46,28.79-5.19,45.74-5.19,28.62,0,51.36,4.15,68.2,12.46,16.84,8.31,25.7,20.01,26.59,35.11h-78.94c-.22-4.15-1.87-7.13-4.95-8.93-3.09-1.8-6.83-2.7-11.23-2.7-3.09,0-5.61.66-7.6,1.97-1.98,1.32-2.97,3.15-2.97,5.5,0,3.32,2.92,6.06,8.75,8.21,5.83,2.15,15.14,4.75,27.91,7.79,14.75,3.46,26.92,6.79,36.5,9.97,9.58,3.19,17.89,7.62,24.94,13.29,7.04,5.68,10.57,12.81,10.57,21.4s-3.52,17.07-10.57,24.2c-7.05,7.13-17.29,12.71-30.72,16.72-13.43,4.02-29.39,6.02-47.89,6.02-27.96,0-51.03-4.12-69.19-12.36h0Z"/>
    <path class="st1" d="M629.08,1718.62v18.07h72.66v34.69h-72.66v20.77h82.57v36.77h-155.89v-147.07h155.89v36.77h-82.57,0Z"/>
    <path class="st1" d="M963.65,1828.92h-73.32l-77.62-73.95v73.95h-73.32v-147.07h73.32l77.62,75.19v-75.19h73.32v147.07Z"/>
    <path class="st1" d="M1180.31,1681.85v36.56h-62.09v110.51h-73.32v-110.51h-61.43v-36.56h196.85Z"/>
    <path class="st1" d="M1273.45,1681.85v147.07h-73.32v-147.07h73.32Z"/>
    <path class="st1" d="M1530.73,1828.92h-73.32l-77.62-73.95v73.95h-73.32v-147.07h73.32l77.62,75.19v-75.19h73.32v147.07Z"/>
    <path class="st1" d="M1637.08,1718.62v18.07h72.66v34.69h-72.66v20.77h82.57v36.77h-155.89v-147.07h155.89v36.77h-82.57Z"/>
    <path class="st1" d="M1820.71,1794.02h70.68v34.9h-144v-147.07h73.32v112.17Z"/>
  </g>
  <g>
    <path class="st0" d="M463.4,1554.43h121.56v71.22h-247.67v-300.14h126.11v228.92h0Z"/>
    <path class="st0" d="M882.62,1580.29h-134.06l-19.88,45.36h-132.36l147.13-300.14h145.42l146.56,300.14h-132.92l-19.88-45.36h0ZM851.94,1509.49l-36.36-83.51-36.36,83.51h72.71Z"/>
    <path class="st0" d="M1449.54,1625.65h-126.11l-133.49-150.92v150.92h-126.11v-300.14h126.11l133.49,153.46v-153.46h126.11v300.14Z"/>
    <path class="st0" d="M1784.4,1344.59c31.62,12.72,55.95,30.38,73,52.99,17.04,22.61,25.56,48.33,25.56,77.15s-8.52,54.26-25.56,77.15c-17.04,22.89-41.38,40.91-73,54.05-31.62,13.14-68.45,19.71-110.49,19.71h-167.58v-300.14h167.58c42.04,0,78.86,6.36,110.49,19.08ZM1730.15,1524.33c16.66-11.58,24.99-28.12,24.99-49.6s-8.33-38.01-24.99-49.6c-16.67-11.58-39.2-17.38-67.6-17.38h-30.11v133.96h30.11c28.4,0,50.93-5.79,67.6-17.38Z"/>
  </g>
  <g>
    <path class="st1" d="M1787.85,284.93v17.6h-18.8v53.2h-22.2v-53.2h-18.6v-17.6h59.6Z"/>
    <path class="st1" d="M1878.95,284.93v70.8h-22.1v-35.3l-10.9,35.3h-19l-10.9-35.3v35.3h-22.2v-70.8h27.2l15.6,42.5,15.2-42.5h27.1Z"/>
  </g>
</svg>